<?xml version="1.0" encoding="UTF-8" standalone="no"?>
<svg
   xmlns:dc="http://purl.org/dc/elements/1.1/"
   xmlns:cc="http://creativecommons.org/ns#"
   xmlns:rdf="http://www.w3.org/1999/02/22-rdf-syntax-ns#"
   xmlns:svg="http://www.w3.org/2000/svg"
   xmlns="http://www.w3.org/2000/svg"
   xmlns:sodipodi="http://sodipodi.sourceforge.net/DTD/sodipodi-0.dtd"
   xmlns:inkscape="http://www.inkscape.org/namespaces/inkscape"
   inkscape:version="1.0beta1 (32d4812, 2019-09-19)"
   sodipodi:docname="round-account-button-with-user-inside.svg"
   xml:space="preserve"
   viewBox="0 0 23.999998 23.999998"
   height="23.999998"
   width="23.999998"
   y="0px"
   x="0px"
   id="Capa_1"
   version="1.1"><metadata
   id="metadata913">
  <rdf:RDF>
    <cc:Work
       rdf:about="">
      <dc:format>image/svg+xml</dc:format>
      <dc:type
         rdf:resource="http://purl.org/dc/dcmitype/StillImage" />
      <dc:title></dc:title>
    </cc:Work>
  </rdf:RDF>
</metadata>
<defs
   id="defs911" />
<sodipodi:namedview
   inkscape:current-layer="Capa_1"
   inkscape:window-maximized="0"
   inkscape:window-y="25"
   inkscape:window-x="45"
   inkscape:cy="32.096039"
   inkscape:cx="11.320781"
   inkscape:zoom="3.1850834"
   fit-margin-bottom="0"
   fit-margin-right="0"
   fit-margin-left="0"
   fit-margin-top="0"
   inkscape:pagecheckerboard="true"
   showgrid="false"
   id="namedview909"
   inkscape:window-height="486"
   inkscape:window-width="1108"
   inkscape:pageshadow="2"
   inkscape:pageopacity="0"
   guidetolerance="10"
   gridtolerance="10"
   objecttolerance="10"
   borderopacity="1"
   inkscape:document-rotation="0"
   bordercolor="#666666"
   pagecolor="#ffffff" />

<g
   transform="scale(0.04705882)"
   id="g876">
	<g
   id="account-circle">
		<path
   inkscape:connector-curvature="0"
   id="path873"
   d="M 255,0 C 114.75,0 0,114.75 0,255 0,395.25 114.75,510 255,510 395.25,510 510,395.25 510,255 510,114.75 395.25,0 255,0 Z m 0,76.5 c 43.35,0 76.5,33.15 76.5,76.5 0,43.35 -33.15,76.5 -76.5,76.5 -43.35,0 -76.5,-33.15 -76.5,-76.5 0,-43.35 33.15,-76.5 76.5,-76.5 z m 0,362.1 c -63.75,0 -119.85,-33.149 -153,-81.6 0,-51 102,-79.05 153,-79.05 51,0 153,28.05 153,79.05 -33.15,48.45 -89.25,81.6 -153,81.6 z" />

	</g>

</g>

<g
   id="g878">
</g>

<g
   id="g880">
</g>

<g
   id="g882">
</g>

<g
   id="g884">
</g>

<g
   id="g886">
</g>

<g
   id="g888">
</g>

<g
   id="g890">
</g>

<g
   id="g892">
</g>

<g
   id="g894">
</g>

<g
   id="g896">
</g>

<g
   id="g898">
</g>

<g
   id="g900">
</g>

<g
   id="g902">
</g>

<g
   id="g904">
</g>

<g
   id="g906">
</g>

</svg>
